# xmcd
#
# Track frame offsets: 
#        150
#        9064
#        20048
#        29576
#        43442
#        54553
#        62693
#        75070
#        85453
#        97080
#        106952
#        114683
#        122956
#        134668
#        147652
#        158674
#
# Disc length: 2265 seconds
#
# Revision: 0
# Processed by: cddbd v1.5.2PL0 Copyright (c) Steve Scherf et al.
# Submitted via: ExactAudioCopy v0.99pb5
#
DISCID=e008d710
DTITLE=Various Artist - A Little Darlin' Christmas
DYEAR=1900
DGENRE=Country
TTITLE0=Bobby Helms - Jingle Bell Rock
TTITLE1=Bobby Helms - Jingle Bells
TTITLE2=Bobby Helms - Here Comes Santa Claus
TTITLE3=Bobby Helms - White Christmas
TTITLE4=Bobby Helms - Rudolph The Red Nosed Reindeer
TTITLE5=Bobby Helms - Winter Wonderland
TTITLE6=Bobby Helms - Silver Bells
TTITLE7=Bobby Helms - I Saw Mommy Kissing Santa Claus
TTITLE8=Bobby Helms - Christmas Time In My Hometown
TTITLE9=Bobby Helms - The Old Year Is Gone
TTITLE10=Bobby Helms - I Wanna Go To Santa Claus Land
TTITLE11=Bobby Helms - Santa Claus Is Coming To Town
TTITLE12=Johnny Paycheck - Jingle Bells
TTITLE13=Johnny Paycheck - Mommy For Awhile On Christmas Day
TTITLE14=Johnny Paycheck - I'll Place My Order Early
TTITLE15=Johnny Paycheck - The Old Year Is Gone
EXTD=
EXTT0=
EXTT1=
EXTT2=
EXTT3=
EXTT4=
EXTT5=
EXTT6=
EXTT7=
EXTT8=
EXTT9=
EXTT10=
EXTT11=
EXTT12=
EXTT13=
EXTT14=
EXTT15=
PLAYORDER=
